<?xml version="1.0"?><svg version="1.2" baseProfile="tiny-ps" viewBox="0 0 300 300" xmlns="http://www.w3.org/2000/svg" xmlns:xlink="http://www.w3.org/1999/xlink"><title>NIKHIL</title><g><g fill="#f6ead9" transform="matrix(.1 0 0 -.1 0 300)"><path d="M0 1500V0h3000v3000H0V1500z"/></g><g fill="#ded5c9" transform="matrix(.1 0 0 -.1 0 300)"><path d="M0 1500V0h3000v3000H0V1500zm1272 928c20-29 90-133 157-230 67-98 121-180 121-183s-71-5-157-5h-158l-85 127c-117 173-139 203-150 203h-10v-330h-70v380l-26 10c-14 6-36 10-50 10h-24v70h417l35-52zm1048 12v-40h-17c-22-1-57-28-72-57l-11-22v-311h-69l-3 171-3 171-28 24-28 24h-39v80h270v-40zM580 1709c63-94 121-175 128-181l12-10v338l-12 12-12 12h34l35-1-17-10-18-10v-399h-27l-28 1-130 194c-72 107-134 195-140 195-5 0-19 7-29 15l-20 15h109l115-171zm387 153-17-19v-352l16-15 15-16H866l12 12 12 12v372l-12 12-12 12h117l-16-18zm225 6-12-12v-316h20l-12-20-13-20 13-20 12-20h-113l16 18 17 19v346l-17 19-16 18h117l-12-12zm299 1c-14-5-30-14-37-20l-12-9-5 20-5 20 41-1h42l-24-10zm233-13-16-25 4-80c2-45 1-82-2-84-3-1-3-44 0-95l6-93 15-10 14-9h-119l12 12 12 12v372l-12 12-12 12h114l-16-24zm318 12-12-12v-372l12-12 12-12h-118l12 12 12 12v184l13 5 12 5-12 13-13 13v152l-12 12-12 12h118l-12-12zm220 0-12-12v-372l12-12 12-12h-117l16 18 17 19v339l-16 22-15 22h115l-12-12zm225-6-16-17-2-193-1-192h-89l15 16 16 15v358l-16 15-15 16h124l-16-18zm-1057-46c0-2-8-10-17-17l-18-14 14 18c13 16 21 21 21 13zm-50-60c0-2-8-10-17-17l-18-14 14 18c13 16 21 21 21 13zm-46-63-3-18 67-95 68-95 24-12 25-13h-143l5 19 5 19-43 64c-23 34-44 65-46 68-2 2-13-2-25-9l-21-13 43 51c24 28 44 51 46 51 1 0 0-8-2-17zm-84-96c0-2-12-14-27-28l-28-24 24 28c23 25 31 32 31 24zm1540-88v-49l-62 1-63 1 32 9 32 9 20 26c12 15 21 35 21 46v19l10-6 10-6v-50zm-2384-34 15-15h-63l12 15c7 8 14 15 17 15 2 0 11-7 19-15zm584-331v-126l29-29 29-29h42v-70H820v70h36l30 31 29 30 3 125 4 124h68v-126zm1106 71c20-30 41-55 45-55h9v110h70V890h-112l-113 1-128 189-128 190h321l36-55zm-972-506 25-12 17-35 16-35-5-40-6-40-25-26-25-25-66-4-65-4v232h109l25-11zm156-77v-88l12-12 12-12h65l15 22 16 22v156h30V573l-11-32-11-31-18-10c-10-6-37-10-59-10h-41l-20 20-20 20v190h30v-88zm260-12V520h100v-30h-130v230h30V620zm265 91c8-14 75-203 75-213 0-4-6-8-14-8h-14l-11 30-10 30h-102l-10-30-11-30h-14c-19 0-19 1 23 122l38 108h22c12 0 24-4 28-9zm185 7c0-2 13-40 28-86l27-84 10-1 10-2 30 88 30 87h45V490h-30v160h-8c-4 0-15-24-25-52-10-29-23-65-29-80l-10-28h-25l-16 43c-8 23-21 59-28 80-7 20-17 37-21 37h-8V490h-30v230h25c14 0 25-1 25-2zm-970-113v-85h78l23 19 24 19v94l-24 19-23 19h-78v-85zm741 48c-6-16-12-39-13-53l-3-25 29-3 28-4 9 9 9 9-16 47c-18 54-27 58-43 20z"/></g><g fill="#c4bfb6" transform="matrix(.1 0 0 -.1 0 300)"><path d="M0 1500V0h3000v3000H0V1500zm1313 873c40-60 113-165 161-235l87-128h-328l-113 165c-62 91-116 165-121 165h-9v-330h-70l-2 193-3 192-52 3-53 3v79h429l74-107zm1015 70-3-38-21-3-21-3-29-30-29-30-3-165-3-164h-68l-3 164-3 165-29 30-29 30-21 3-21 3-3 38-3 37h292l-3-37zM586 1705c66-96 122-175 127-175h7v313l-17 19-16 18h76l-16-18-17-19v-383h-57l-134 198-134 197-3-184-2-183 11-14 11-14h-66l12 12 12 12v384l-12 5c-7 3 12 6 43 6l56 1 119-175zm386 163-12-12v-372l12-12 12-12h-64l-65 1 18 10 17 10v362l-17 19-16 18h127l-12-12zm225-6-17-19v-293h9c5 0 63 66 128 146l118 145-2 20-3 19h48l47-1-30-13-31-13-54-64c-30-35-60-72-68-81l-15-18 69-101 69-102 30-13 30-13-77-1h-77l6 15 5 16-47 72-48 71-54-59-53-60v-34l18-10 17-10-65-1h-64l12 12 12 12v372l-12 12-12 12h127l-16-18zm535 6-12-12v-187l122 3 121 3-2 85-2 85-16 17-16 18h69l69-1-17-10-18-10v-378l18-10 17-10h-140l18 10 17 10v179h-264l12-12 12-12v-152l12-12 12-12h-125l15 16 16 15v352l-17 19-16 18h127l-12-12zm535-6-17-19v-352l16-15 15-16h-125l12 12 12 12v372l-12 12-12 12h127l-16-18zm225 6-12-12v-335l-10-25-10-26h242l34 34 34 34v16c0 9 5 16 10 16h10v-110h-411l15 22 16 22v321l-14 28-15 27h123l-12-12zM990 1155v-116l15-29 15-29 35-12 35-13v-66H810v66l32 9 31 10 21 28 21 28 3 120 4 119h68v-115zm1103 71c15-24 34-50 42-56l15-12v112h70V890h-227l-120 178c-65 97-123 183-127 190l-7 12h326l28-44zm-946-530 28-24V541l-23-23-22-23-75-3-75-4v232h139l28-24zm133-64v-88l12-12 12-12h62l12 12 12 12v176h42l-4-94-3-94-19-21-19-21h-104l-19 21-19 21-3 94-4 94h42v-88zm260-12V520h110v-30h-150v230h40V620zm304-5c41-118 42-125 21-125h-15l-12 25-11 25h-97l-10-25-10-25h-39l39 112c22 62 40 114 40 115 0 2 13 3 29 3h29l36-105zm176 20 27-80h18l29 83 28 82h58V490h-40v150h-8c-4 0-19-33-32-72l-25-73h-38l-26 72c-14 39-29 75-33 79l-8 7V490h-40v231l32-3 31-3 27-80zm-1000-30v-85h80l20 20 20 20v90l-20 20-20 20h-80v-85zm737 28-14-48 29-3c17-2 32-1 35 1 7 7-16 85-27 92l-9 6-14-48z"/></g><g fill="#8e8f91" transform="matrix(.1 0 0 -.1 0 300)"><path d="M0 1500V0h3000v3000H0V1500zm1398 754c84-123 155-231 159-239l5-15h-327l-110 162c-61 89-116 164-122 166l-13 4v-333l-37 3-38 3-5 195-5 195-47 3-48 3v79h218l217-1 153-225zm932 188v-38l-32-9-31-10-21-28-21-28-3-165-4-164h-66l-4 164-3 165-21 28-21 28-31 10-32 9v76h290v-38zM586 1710c62-90 117-166 123-168l11-4v305l-17 19-16 18h36c41 0 44-4 22-26l-15-15v-389h-47l-15 18c-9 9-64 89-123 177s-116 169-126 180l-19 19v-362l16-6 15-6-6-10-6-10h-29c-16 0-31 4-34 9l-6 9 15 12 15 12v367l-17 11-18 10 65-2 65-3 111-165zm391 152-17-19v-361l16-6 15-6-6-10-6-10H860v9c0 5 7 14 15 21l15 12v351l-17 19-16 18h136l-16-18zm220 0-17-19v-146c0-81 3-147 6-147 6 0 23 19 157 183l98 119-12 14-11 14h53l54-1-30-13-30-13-62-76c-35-41-63-81-63-87 0-7 28-55 63-106l62-94 28-12c15-7 27-16 27-20v-8h-73c-41 0-77 3-80 7l-7 6 11 13 10 12-43 66c-24 36-48 66-53 66-9 0-40-33-94-103l-14-17 17-18c9-10 16-22 16-25 0-4-27-7-59-7h-60l-5 9-6 9 15 12 15 12v351l-17 19-16 18h136l-16-18zm540 0-17-19v-163h245l-3 82-4 83-15 18-16 17h136l-16-18-17-19v-351l15-12c8-7 15-16 15-21v-9h-130v9c0 5 7 14 15 21l16 13-3 81-3 81-120 3-120 3 4-88 3-88 14-8c8-4 14-12 14-17v-10h-130v8c0 4 7 16 15 26l15 20v332l-16 22-15 22h134l-16-18zm530 0-17-19v-351l15-12c8-7 15-16 15-21v-9h-119l-5 9-6 9 15 12 15 12v351l-17 19-16 18h136l-16-18zm231 5-17-13-3-192-3-192h210l32 19 31 20 13 35c7 20 17 36 21 36h8v-130h-410v9c0 6 5 13 10 16l10 6v379h-10c-5 0-10 5-10 10v10h68l67-1-17-12zM990 1163v-118l20-33 20-33 30-11 30-10v-78H810v76l35 13 35 12 15 29 15 29v114c0 62 3 117 7 120 3 4 21 7 40 7h33v-117zm1106 62c20-30 41-55 45-55h9v110h70V879l-112 3-113 3-117 170c-64 94-124 182-133 198l-16 27h331l36-55zm-994-505 37-11 21-26 20-26V548l-29-29-29-29H980v113c0 63 3 117 7 120 10 10 73 8 115-3zm178-79v-90l16-15 15-16h48l15 16 16 15v179h40V551l-12-26-11-25-37-11-37-11-35 11-35 12-12 25-11 25v179h40v-89zm260-16V520h110v-30h-150v240h40V625zm267 93c6-7 26-61 46-120l36-108h-47l-6 25-6 25h-100l-10-25-10-25h-42l4 13c3 6 22 60 43 120l38 107h45l9-12zm201-40c11-29 25-70 32-91l12-39 8 9c4 4 20 45 35 91l27 83 27-3 26-3 3-117 3-118h-41v150h-7c-5 0-19-34-32-75l-25-75h-41l-24 70c-14 39-28 73-33 76l-8 5V490h-40v113c0 63 3 117 7 120 3 4 17 7 29 7h23l19-52zm-984-1c-3-8-4-45-2-83l3-69 39 1 40 2 18 22 18 22v69l-25 24-24 25h-62l-5-13zm737-38c-6-18-11-38-11-45v-14h30c34 0 34-1 18 51-14 47-23 49-37 8z"/></g><g fill="#454f5d" transform="matrix(.1 0 0 -.1 0 300)"><path d="M0 1500V0h3000v3000H0V1500zm1402 753c85-126 158-234 162-240l7-13h-340l-112 165-112 165-8-6-9-5v-319h-80v388l-16 6c-9 3-31 6-50 6h-34v80h438l154-227zm928 187v-40h-32l-34-34-34-34v-332h-90v337l-27 27c-14 14-37 29-50 32l-23 6v78h290v-40zM589 1714l116-171 3 150 3 150-16 17-15 17 7 6c10 10 71 8 77-2l6-9-15-12-15-12v-398h-68l-103 153c-57 83-117 172-134 195l-30 44-3-173-2-172 15-17c23-25 19-30-25-30h-40v8c0 4 7 16 15 26l15 20v356h-30v31l61-3 62-3 116-171zm401 162c0-8-7-16-15-20l-15-5v-359l15-12c8-7 15-16 15-21v-9H860v15c0 8 5 15 10 15h10v369l-10 6c-5 3-10 13-10 21v14h130v-14zm220 1c0-7-5-18-10-23l-11-11 3-143 3-144 117 144 117 144-6 24-5 23 51-3 51-3 3-9 2-10-30-8-30-8-60-75c-33-40-61-78-63-83-1-5 27-53 64-106l66-98 29-10 29-10-6-9-5-9h-159l6 25 6 24-42 61c-24 33-46 60-49 60-3-1-25-25-48-54-41-51-54-86-33-86 6 0 10-7 10-15v-15h-130v9c0 5 7 14 15 21l15 12v347l-15 15c-8 8-15 19-15 25v11h130v-13zm540-1c0-8-7-16-15-20l-15-5v-171h235l-4 87-3 88-9 3c-5 2-9 10-9 18v14h130v-14c0-8-7-16-15-20l-15-5v-362l15-5c8-4 15-12 15-20v-14h-130v15c0 8 5 15 10 15h10v180h-230v-168l15-12c8-7 15-16 15-21v-9h-130v15c0 8 5 15 10 15h10v368l-15 12-15 12 6 9 5 9h129v-14zm530 0c0-8-4-18-10-21l-10-6v-369h10c6 0 10-7 10-15v-15h-130v9c0 5 7 14 15 21l15 12v359l-15 5c-8 4-15 12-15 20v14h130v-14zm230 7c0-3-7-14-15-23l-14-16-1-184-2-185 74-3c40-2 92 0 115 3l41 6 26 25c13 14 26 35 28 46 2 12 9 23 16 26l12 4v-132h-420v9c0 5 7 14 15 21l15 12v356l-15 12-15 12 6 9 5 9h65c35 0 64-3 64-7zM991 1173v-108l12-35 12-35 43-20 42-19v-76H809l3 43 3 42 21 3 22 3 23 25 24 26 3 129 4 129h78l1-107zm1111 49 38-57v115h90V880h-237l-132 194c-72 107-131 197-131 200s75 6 168 6h167l37-58zm-976-507 35-14 15-38 16-37-5-39c-3-21-12-49-21-62l-16-24-37-10c-21-6-59-11-85-11h-48v250h111l35-15zm154-70v-85l20-20c23-23 39-25 63-7l16 12 3 90 3 90 23 3 22 3V521l-26-20-27-21h-83l-21 15-22 16-11 37c-11 41-14 165-3 175 3 4 15 7 25 7h18v-85zm260-15V530h110v-51l-77 3-78 3-3 109c-1 61 0 116 2 123l5 13h41V630zm312-20c21-63 38-118 38-122s-9-8-20-8h-19l-16 30-16 30h-87l-11-30-10-30h-41v15c0 11 18 65 75 223l5 13 32-3 31-3 39-115zm172 32c16-45 31-80 35-77 3 4 18 41 32 83l26 77 31 3 32 3V479l-22 3-23 3-5 70-5 70-25-70-25-70h-40l-25 70-25 70-5-70-5-70-22-3-23-3v252l33-3 32-3 29-83zm-994-32v-80h29c16 0 36 3 45 6l15 6 10 31 11 32-8 30-8 30-25 12c-13 7-34 13-46 13h-23v-80zm732 21c-16-52-16-51 19-51h30l-7 23c-12 39-23 67-27 67-2 0-9-17-15-39z"/></g><g fill="#041530" transform="matrix(.1 0 0 -.1 0 300)"><path d="M0 1500V0h3000v3000H0V1500zm1405 758c87-128 160-241 163-250l4-18h-331l-14 14c-8 8-61 83-118 168l-104 153-5-165-5-165-24-3c-12-2-34-1-47 2l-24 6v389l-47 3-48 3-3 33c-2 19-1 40 2 48l5 14h438l158-232zm930 183v-45l-32-8-33-9-17-26-18-27-5-166-5-165h-80l-5 173-5 174-28 24-28 24h-39l-6 25-6 25 6 25 7 26 147-3 147-3v-44zM591 1720l114-170 3 147 3 148-16 11c-8 6-15 16-15 23v11h90v-14c0-7-7-19-15-26l-15-12v-389l-15-5c-8-4-25-3-38 0l-22 6-125 185-125 185-3-161-3-161 12-14 11-14-6-15-5-15h-28c-15 0-35 4-43 10l-14 9 17 19 17 19v361l-15 6c-8 3-15 10-15 16v10h136l115-170zm403 161 6-9-15-12-15-12v-351l17-19 17-19-14-9-15-10H859l-6 16-6 16 16 10 17 9v360l-15 5c-8 4-15 12-15 20v14h139l5-9zm226-5c0-8-7-16-15-20l-15-5v-282l10 6c5 3 57 65 117 137l107 132-2 23-2 23h110v-27l-29-6-28-6-66-82-66-83 56-80c31-45 65-91 76-103l20-23h38l-3-17-3-18h-160l1 25 1 25-39 58c-22 32-43 57-48 55-11-4-90-101-90-111 0-4 7-10 15-13 20-8 19-30-1-38-9-3-37-6-64-6h-48l-11 14-11 13 15 13 15 12v356l-15 12-15 12 6 9 5 9h139v-14zm530 0c0-8-4-18-10-21l-10-6v-159h220v161l-15 5c-8 4-15 12-15 20v14h140v-14c0-8-4-18-10-21l-10-6v-358l10-6c6-3 10-15 10-26v-19h-129l-6 11-7 10 16 18 16 18v153h-225l4-82 3-83 11-6 10-7-6-16-6-16h-122l-6 16-6 16 16 10 17 9v360l-15 5c-8 4-15 12-15 20v14h140v-14zm540 0c0-8-7-16-15-20l-15-5v-360l17-9 16-10-6-16-6-16h-119l-11 14-11 13 15 13 15 12v356l-15 12-15 12 6 9 5 9h139v-14zm220-1v-16l-15-5-15-6v-368h217l27 21 26 20 8 31c4 18 13 33 20 36l12 4v-152h-411l-6 16-6 16 16 10 17 9v357l-15 6-15 5v31h140v-15zm-1508-726 3-131 28-24 28-24h39v-90H799l3 43 3 42 22 3 21 3 26 26 26 26v122c0 67 3 125 7 128 3 4 25 7 49 7h42l4-131zm1102 79 36-52v104h90V880h-122l-123 1-115 171c-63 94-123 183-133 199l-19 29h349l37-52zm-964-515c16-9 33-27 39-40l11-24v-99l-29-32-29-33-81-3-81-4v252h142l28-17zm150-71v-88l12-12c15-15 51-15 66 0l12 12v176h60V549l-15-28c-17-34-33-41-90-41s-73 7-90 41l-15 28v181h60v-88zm260-12V530h109l3-16 3-16 38 116 38 116h74l40-117c22-64 42-120 43-125l4-8h-62l-10 25-10 25h-88l-6-25-6-25h-230v250h60V630zm475 20 27-80 7 4c4 3 18 39 31 80l24 76h77l-3-122-3-123-27-3-28-3-1 68v68l-9-20c-5-11-16-41-26-67l-17-48h-45l-10 28c-5 15-17 45-26 67l-15 40v-67l-1-68h-50v250h68l27-80zm-995-45v-75h60l20 20 20 20v77l-18 16-19 17h-63v-75zm733 15-11-30h48v13c0 7-6 21-13 30l-12 18-12-31z"/></g></g></svg>